<?xml version="1.0" standalone="no"?>
<!DOCTYPE svg PUBLIC "-//W3C//DTD SVG 20010904//EN"
 "http://www.w3.org/TR/2001/REC-SVG-20010904/DTD/svg10.dtd">
<svg version="1.0" xmlns="http://www.w3.org/2000/svg"
 width="91.000000pt" height="91.000000pt" viewBox="0 0 91.000000 91.000000"
 preserveAspectRatio="xMidYMid meet">
<metadata>
Created by potrace 1.11, written by Peter Selinger 2001-2013
</metadata>
<g transform="translate(0.000000,91.000000) scale(0.100000,-0.100000)"
fill="#000000" stroke="none">
<path d="M0 460 l0 -450 455 0 455 0 0 450 0 450 -455 0 -455 0 0 -450z m476
373 c1 -7 2 -17 3 -23 0 -5 19 -10 40 -10 26 0 41 -5 45 -16 8 -22 8 -54 -1
-55 -87 -9 -93 -32 -93 -376 0 -149 -3 -278 -6 -287 -5 -14 -33 -16 -205 -16
l-199 0 0 400 0 400 208 -2 c157 -2 207 -6 208 -15z m158 -8 c6 -23 10 -24 98
-27 l91 -3 0 -232 c0 -279 -1 -283 -88 -283 -61 0 -94 -22 -96 -62 -3 -60 4
-95 22 -120 l20 -28 -40 0 -40 0 0 348 c-1 330 -2 368 -16 413 -5 15 -1 19 18
19 18 0 27 -7 31 -25z m-67 -463 l2 -292 -33 0 -34 0 2 281 c1 266 2 281 21
295 10 8 24 13 30 11 6 -2 11 -104 12 -295z m293 -137 l0 -95 -83 0 c-87 0
-107 8 -107 45 0 34 20 45 81 45 50 0 60 3 78 26 12 15 21 37 21 50 0 13 2 24
5 24 3 0 5 -43 5 -95z"/>
<path d="M106 805 c-41 -42 -6 -75 80 -75 50 0 64 -3 64 -15 0 -17 0 -17 -89
-19 -42 0 -66 -5 -68 -13 -4 -10 33 -13 161 -13 90 0 167 4 171 9 8 13 -22 19
-80 17 -50 -2 -80 9 -69 25 3 5 32 9 64 9 67 0 95 18 84 54 -9 29 -9 29 -55
30 -25 1 -44 -4 -46 -11 -3 -9 8 -13 36 -13 30 0 41 -4 41 -15 0 -13 -11 -15
-62 -13 -62 3 -63 4 -62 31 1 17 -4 27 -12 27 -9 0 -14 -11 -14 -30 l0 -30
-65 0 c-50 0 -65 3 -65 14 0 10 13 16 38 18 47 4 48 22 1 26 -24 2 -42 -3 -53
-13z"/>
<path d="M250 589 c0 -67 -1 -70 -22 -67 -21 3 -23 9 -26 66 -2 46 -7 62 -17
62 -11 0 -15 -12 -15 -39 0 -26 -5 -41 -16 -45 -25 -10 -34 2 -34 45 0 28 -4
39 -15 39 -11 0 -15 -12 -15 -47 0 -63 10 -77 48 -70 25 5 32 2 37 -13 8 -25
47 -32 158 -28 107 4 121 22 20 26 -85 3 -100 22 -18 22 42 0 60 5 75 20 24
24 24 29 4 58 -12 18 -25 22 -70 22 -40 0 -54 -4 -54 -14 0 -11 15 -16 53 -18
38 -2 52 -7 52 -18 0 -12 -13 -15 -60 -15 l-60 0 1 43 c1 29 -3 42 -12 42 -11
0 -14 -18 -14 -71z"/>
<path d="M90 405 c0 -12 14 -15 70 -15 56 0 70 3 70 15 0 12 -14 15 -70 15
-56 0 -70 -3 -70 -15z"/>
<path d="M260 401 c-15 -30 -13 -314 3 -308 8 2 12 32 13 97 0 63 4 95 12 98
9 3 12 -24 12 -98 0 -77 3 -101 13 -97 8 2 12 30 13 88 2 104 2 109 12 109 16
0 33 -59 23 -79 -16 -29 -14 -121 2 -121 8 0 13 13 14 33 0 62 3 77 13 77 6 0
10 -25 10 -55 0 -44 3 -55 16 -55 14 0 15 9 9 63 -8 72 -8 83 -1 160 6 56 5
57 -19 57 -14 0 -25 5 -25 10 0 6 11 10 25 10 16 0 25 6 25 16 0 25 -63 14
-75 -13 -7 -17 -18 -23 -42 -23 -18 0 -33 5 -33 10 0 6 11 10 25 10 16 0 25 6
25 15 0 23 -57 20 -70 -4z m90 -71 c0 -5 -18 -10 -41 -10 -24 0 -38 4 -34 10
3 6 22 10 41 10 19 0 34 -4 34 -10z m52 -25 c-2 -19 -8 -35 -13 -35 -5 0 -9
16 -9 35 0 22 5 35 13 35 9 0 12 -11 9 -35z"/>
<path d="M90 355 c0 -8 5 -15 10 -15 6 0 10 -9 10 -20 0 -11 9 -29 20 -40 26
-26 25 -28 -7 -32 -39 -4 -42 -28 -4 -28 24 0 31 -4 31 -20 0 -11 -7 -20 -15
-20 -8 0 -15 7 -15 16 0 9 -6 14 -12 11 -8 -2 -12 -20 -12 -47 2 -50 21 -70
69 -70 56 0 72 25 66 103 -1 21 -21 23 -21 2 0 -15 -21 -21 -33 -9 -13 14 7
34 35 34 36 0 34 23 -3 28 -28 4 -51 22 -27 22 13 0 48 68 48 93 0 4 -31 7
-70 7 -56 0 -70 -3 -70 -15z m98 -32 c-2 -10 -12 -18 -23 -18 -11 0 -21 8 -23
18 -3 13 3 17 23 17 20 0 26 -4 23 -17z m22 -183 c0 -11 -30 -27 -47 -24 -7 1
-20 2 -28 3 -8 0 -15 8 -15 16 0 11 12 15 45 15 25 0 45 -4 45 -10z"/>
<path d="M639 738 c-7 -145 1 -328 14 -360 28 -68 116 -58 135 15 5 17 8 106
8 197 -1 151 -3 165 -19 168 -11 2 -18 -2 -16 -10 6 -50 0 -58 -46 -58 -31 0
-45 4 -44 13 4 33 -2 57 -16 57 -9 0 -15 -10 -16 -22z m122 -125 c5 -42 3
-155 -4 -180 -7 -28 -13 -33 -38 -33 -39 0 -46 21 -47 133 l-1 87 44 0 c25 0
45 -3 46 -7z"/>
</g>
</svg>
